<svg width="20" height="17" viewBox="0 0 20 17" fill="none" xmlns="http://www.w3.org/2000/svg">
<path d="M3.26904 7.75003C3.2678 6.86054 3.44262 5.9796 3.78343 5.15799C4.12424 4.33638 4.6243 3.59034 5.25477 2.96289C5.88525 2.33544 6.63368 1.83898 7.45693 1.50213C8.28017 1.16528 9.16194 0.994699 10.0514 1.00022C13.763 1.02781 16.7317 4.11285 16.7317 7.83477V8.50003C16.7317 11.8577 17.4342 13.8062 18.0529 14.8711C18.1196 14.9849 18.1551 15.1143 18.1558 15.2461C18.1565 15.378 18.1224 15.5077 18.0569 15.6222C17.9915 15.7367 17.8971 15.8319 17.7831 15.8983C17.6691 15.9646 17.5397 15.9997 17.4078 16H2.59222C2.46034 15.9997 2.33087 15.9646 2.21689 15.8982C2.1029 15.8319 2.00844 15.7366 1.94301 15.6221C1.87759 15.5076 1.84352 15.3779 1.84425 15.246C1.84498 15.1141 1.88048 14.9847 1.94716 14.8709C2.56622 13.806 3.26904 11.8576 3.26904 8.50003L3.26904 7.75003Z" stroke="#939393" stroke-width="2" stroke-linecap="round" stroke-linejoin="round"/>
</svg>
