<svg width="24" height="24" viewBox="0 0 24 24" fill="none" xmlns="http://www.w3.org/2000/svg">
<path d="M12 15C13.6569 15 15 13.6569 15 12C15 10.3431 13.6569 9 12 9C10.3431 9 9 10.3431 9 12C9 13.6569 10.3431 15 12 15Z" stroke="#939393" stroke-width="2" stroke-linecap="round" stroke-linejoin="round"/>
<path d="M5.2304 16.7746L5.11819 18.5151C5.11014 18.6266 5.12677 18.7386 5.16691 18.8429C5.20705 18.9473 5.26971 19.0415 5.35042 19.1189C6.42914 20.1421 7.73449 20.8958 9.15996 21.3184C9.26734 21.3496 9.38029 21.3567 9.49074 21.3393C9.6012 21.3219 9.70646 21.2803 9.79903 21.2176L11.2502 20.2502H12.7502L14.2013 21.2176C14.2939 21.2804 14.3992 21.3219 14.5096 21.3393C14.6201 21.3568 14.733 21.3496 14.8404 21.3184C16.2659 20.8958 17.5712 20.1422 18.6499 19.119C18.7306 19.0416 18.7933 18.9473 18.8335 18.843C18.8736 18.7386 18.8902 18.6267 18.8822 18.5151L18.77 16.7747L19.52 15.4757L21.0834 14.7026C21.184 14.6538 21.2726 14.5835 21.3429 14.4965C21.4133 14.4096 21.4635 14.3082 21.4902 14.1996C21.837 12.7538 21.8369 11.2465 21.4902 9.80072C21.4635 9.69212 21.4132 9.59074 21.3429 9.50378C21.2726 9.41683 21.184 9.34646 21.0834 9.29766L19.52 8.52463L18.77 7.22558L18.8822 5.48512C18.8903 5.37359 18.8737 5.26165 18.8335 5.15728C18.7934 5.05291 18.7307 4.95867 18.65 4.88127C17.5713 3.85808 16.2659 3.10445 14.8405 2.68186C14.7331 2.65065 14.6202 2.6435 14.5097 2.66092C14.3992 2.67834 14.294 2.7199 14.2014 2.78264L12.7503 3.75001H11.2503L9.7991 2.7826C9.70653 2.71986 9.60127 2.6783 9.49082 2.66087C9.38036 2.64345 9.26741 2.65059 9.16003 2.68179C7.73457 3.1044 6.42922 3.85805 5.35052 4.88125C5.2698 4.95864 5.20714 5.05288 5.16699 5.15725C5.12685 5.26162 5.11021 5.37356 5.11827 5.48509L5.23046 7.2255L4.48046 8.52454L2.91708 9.29759C2.81646 9.34638 2.72783 9.41676 2.65751 9.50371C2.58719 9.59065 2.53691 9.69204 2.51024 9.80064C2.16349 11.2464 2.1635 12.7537 2.51026 14.1995C2.53692 14.3081 2.5872 14.4095 2.65752 14.4964C2.72784 14.5834 2.81646 14.6538 2.91708 14.7026L4.4804 15.4756L5.2304 16.7746Z" stroke="#939393" stroke-width="2" stroke-linecap="round" stroke-linejoin="round"/>
</svg>
