<svg width="100" height="30" viewBox="0 0 100 30" fill="none" xmlns="http://www.w3.org/2000/svg">
<path d="M32.9335 7.75809H44.1113V10.242H40.0427V23.0044H37.002V10.242H32.9335V7.75809Z" fill="#6F4AD2"/>
<path d="M51.6056 10.7132C53.5328 10.7132 54.8605 11.6126 55.5885 12.6404V10.9273H58.6721V23.0045H55.5885V21.2486C54.8605 22.2764 53.49 23.2186 51.5628 23.2186C48.5221 23.2186 46.0381 20.6918 46.0381 16.9231C46.0381 13.1543 48.5221 10.7132 51.6056 10.7132ZM52.3765 13.4113C50.7491 13.4113 49.2073 14.6533 49.2073 16.9231C49.2073 19.1929 50.7491 20.5205 52.3765 20.5205C54.0468 20.5205 55.5885 19.2357 55.5885 16.9659C55.5885 14.6961 54.0896 13.4113 52.3765 13.4113Z" fill="#6F4AD2"/>
<path d="M62.2272 6.85861H65.2679V23.0043H62.2272V6.85861Z" fill="#6F4AD2"/>
<path d="M68.8654 6.85861H71.9061V16.0664L75.9746 10.9272H79.9575L74.6041 17.0086L80.0003 23.0043H76.0174L71.9061 17.8651V23.0043H68.8654V6.85861Z" fill="#6F4AD2"/>
<path d="M81.7983 7.67244C81.7983 6.68743 82.5692 5.87372 83.6827 5.87372C84.7534 5.87372 85.5671 6.6446 85.5671 7.67244C85.5671 8.70029 84.7534 9.47117 83.6827 9.47117C82.612 9.47117 81.7983 8.70029 81.7983 7.67244ZM82.141 10.9273H85.1817V23.0044H82.141V10.9273Z" fill="#6F4AD2"/>
<path d="M94.0476 23.2186C90.5358 23.2186 87.9662 20.7775 87.9662 16.9659C87.9662 13.1543 90.4501 10.7132 94.0476 10.7132C97.5594 10.7132 100.001 13.1115 100.001 16.7089C100.001 17.0944 99.9577 17.4798 99.9149 17.9081H91.0497C91.221 19.7068 92.4202 20.6918 93.9619 20.6918C95.2896 20.6918 95.9748 20.0494 96.4031 19.2357H99.7007C99.0583 21.4627 97.0455 23.2186 94.0476 23.2186ZM91.0925 15.8524H96.8313C96.7885 14.2678 95.5037 13.24 93.9619 13.24C92.5058 13.24 91.3495 14.1822 91.0925 15.8524Z" fill="#6F4AD2"/>
<path d="M13.1117 29.092C13.1117 28.364 13.0689 27.6787 13.1117 27.0363C13.1545 26.2654 12.8548 26.0085 12.0839 25.9657C6.08812 25.5374 1.37718 21.2975 0.220852 15.3018C-1.10678 8.23536 3.68982 1.4259 10.8847 0.183926C17.8655 -1.01522 24.6321 3.78138 25.7884 10.7193C27.1589 19.0705 21.3345 27.3789 13.1117 29.092ZM12.9404 17.8714C15.51 17.9142 17.8227 15.6444 17.8227 13.1176C17.8227 11.9185 17.3516 11.5759 16.2809 11.9613C15.5528 12.2183 14.8676 12.5609 14.1396 12.775C12.5978 13.2461 11.2273 12.6037 9.81405 12.0041C8.65773 11.533 8.18664 11.8756 8.18664 13.1176C8.18664 15.6444 10.4136 17.8286 12.9404 17.8714Z" fill="#6F4AD2"/>
</svg>
